<svg id="eEKkRqB5bnm1" xmlns="http://www.w3.org/2000/svg" xmlns:xlink="http://www.w3.org/1999/xlink" viewBox="0 0 1920 1080" shape-rendering="geometricPrecision" text-rendering="geometricPrecision"><rect width="2450.81244" height="1480.524921" rx="0" ry="0" transform="matrix(.913222 0 0 0.79096-159.067919-45.517995)" stroke-width="0"/><rect width="121.28594" height="117.103666" rx="0" ry="0" transform="translate(1887.067919 841.704438)" fill="#039" stroke-width="0"/><rect width="121.28594" height="117.103666" rx="0" ry="0" transform="translate(1987.44249 1000.630842)" fill="#039" stroke-width="0"/><rect width="121.28594" height="117.103666" rx="0" ry="0" transform="matrix(.413794 0 0 0.413792 1629.858027 244.504651)" fill="#039" stroke-width="0"/><rect width="121.28594" height="117.103666" rx="0" ry="0" transform="matrix(.727333-.291864 0.282344 0.703608 1278.347517 576.784834)" fill="#039" stroke-width="0"/><rect width="121.28594" height="117.103666" rx="0" ry="0" transform="matrix(.965603-.387477 0.374837 0.934106 1925.758257 572.209713)" fill="#039" stroke-width="0"/><rect width="121.28594" height="117.103666" rx="0" ry="0" transform="matrix(.965603-.387477 0.374837 0.934106 1453.161319 1027.986821)" fill="#039" stroke-width="0"/><rect width="121.28594" height="117.103666" rx="0" ry="0" transform="matrix(.965603-.387477 0.374837 0.934106 1760.542105 1027.98682)" fill="#039" stroke-width="0"/><rect width="121.28594" height="117.103666" rx="0" ry="0" transform="matrix(.965603-.387477 0.374837 0.934106 2064.819772 904.366128)" fill="#039" stroke-width="0"/><rect width="121.28594" height="117.103666" rx="0" ry="0" transform="matrix(.965603-.387477 0.374837 0.934106 1899.60362 969.455273)" fill="#039" stroke-width="0"/><rect width="121.28594" height="117.103666" rx="0" ry="0" transform="matrix(.965603-.387477 0.374837 0.934106 2016.717718 1082.680417)" fill="#039" stroke-width="0"/><rect width="121.28594" height="117.103666" rx="0" ry="0" transform="matrix(.965603-.387477 0.374837 0.934106 2051.750234 718.498564)" fill="#039" stroke-width="0"/><rect width="121.28594" height="117.103666" rx="0" ry="0" transform="matrix(.965603-.387477 0.374837 0.934106 1681.111579 768.68585)" fill="#039" stroke-width="0"/><rect width="121.28594" height="117.103666" rx="0" ry="0" transform="matrix(.965603-.387477 0.374837 0.934106 1592.222834 914.761678)" fill="#039" stroke-width="0"/><rect width="121.28594" height="117.103666" rx="0" ry="0" transform="matrix(.965603-.387477 0.374837 0.934106 1599.533174 914.761678)" fill="#039" stroke-width="0"/><rect width="121.28594" height="117.103666" rx="0" ry="0" transform="matrix(.965603-.387477 0.374837 0.934106 1783.563461 930.522658)" fill="#039" stroke-width="0"/><rect width="121.28594" height="117.103666" rx="0" ry="0" transform="matrix(.965603-.387477 0.374837 0.934106 1845.253792 671.503082)" fill="#039" stroke-width="0"/><rect width="121.28594" height="117.103666" rx="0" ry="0" transform="matrix(.74377-.29846 0.288724 0.719508 1895.316055 410.403988)" fill="#039" stroke-width="0"/><rect width="121.28594" height="117.103666" rx="0" ry="0" transform="matrix(.727333-.291864 0.282344 0.703608 1556.499459 501.71618)" fill="#039" stroke-width="0"/><rect width="121.28594" height="117.103666" rx="0" ry="0" transform="matrix(.727333-.291864 0.282344 0.703608 1350.496615 712.792447)" fill="#039" stroke-width="0"/><rect width="121.28594" height="117.103666" rx="0" ry="0" transform="matrix(.727333-.291864 0.282344 0.703608 1211.4351 859.081297)" fill="#039" stroke-width="0"/><rect width="121.28594" height="117.103666" rx="0" ry="0" transform="matrix(.727333-.291864 0.282344 0.703608 1193.680428 1035.684623)" fill="#039" stroke-width="0"/><rect width="121.28594" height="117.103666" rx="0" ry="0" transform="matrix(.727333-.291864 0.282344 0.703608 1416.128578 378.867665)" fill="#039" stroke-width="0"/><rect width="121.28594" height="117.103666" rx="0" ry="0" transform="matrix(.491488-.197224 0.141556 0.352761 1579.56272 152.960225)" fill="#039" stroke-width="0"/><rect width="121.28594" height="117.103666" rx="0" ry="0" transform="matrix(.491488-.197224 0.141556 0.352761 1795.984046 199.955707)" fill="#039" stroke-width="0"/><rect width="121.28594" height="117.103666" rx="0" ry="0" transform="matrix(.352707-.141534 0.136917 0.341202 2031.938147 127.758447)" fill="#039" stroke-width="0"/><rect width="121.28594" height="117.103666" rx="0" ry="0" transform="matrix(.491488-.197224 0.141556 0.352761 1352.409437 184.156079)" fill="#039" stroke-width="0"/><rect width="121.28594" height="117.103666" rx="0" ry="0" transform="matrix(.491488-.197224 0.141556 0.352761 1036.763612 283.28762)" fill="#039" stroke-width="0"/><rect width="121.28594" height="117.103666" rx="0" ry="0" transform="matrix(.491488-.197224 0.141556 0.352761 956.259147 460.829729)" fill="#039" stroke-width="0"/><rect width="121.28594" height="117.103666" rx="0" ry="0" transform="matrix(.491488-.197224 0.141556 0.352761 839.145049 711.999461)" fill="#039" stroke-width="0"/><rect width="121.28594" height="117.103666" rx="0" ry="0" transform="matrix(.491488-.197224 0.141556 0.352761 736.693167 951.079778)" fill="#039" stroke-width="0"/><rect width="121.28594" height="117.103666" rx="0" ry="0" transform="matrix(.491488-.197224 0.141555 0.35276 656.18872 484.327518)" fill="#039" stroke-width="0"/><rect width="121.28594" height="117.103666" rx="0" ry="0" transform="matrix(.491488-.197224 0.141556 0.352761 459.621834 259.042024)" fill="#039" stroke-width="0"/><rect width="121.28594" height="117.103666" rx="0" ry="0" transform="matrix(.33338 0 0 0.33338 1212.324918 730.174408)" fill="#039" stroke-width="0"/><rect width="121.28594" height="117.103666" rx="0" ry="0" transform="matrix(.426139 0 0 0.426139 1369.059721 940.985805)" fill="#039" stroke-width="0"/><rect width="121.28594" height="117.103666" rx="0" ry="0" transform="matrix(.313782 0 0 0.313782 2029.056788 443.812031)" fill="#039" stroke-width="0"/><rect width="121.28594" height="117.103666" rx="0" ry="0" transform="matrix(.654903 0 0 0.654903 1761.616044 596.255638)" fill="#039" stroke-width="0"/><rect width="121.28594" height="117.103666" rx="0" ry="0" transform="matrix(.654904 0 0 0.654904 1761.615983 396.087182)" fill="#039" stroke-width="0"/><rect width="121.28594" height="117.103666" rx="0" ry="0" transform="matrix(.478577 0 0 0.478577 1504.643453 712.949919)" fill="#039" stroke-width="0"/><rect width="121.28594" height="117.103666" rx="0" ry="0" transform="matrix(.555825 0 0 0.555825 1657.592654 1027.98682)" fill="#039" stroke-width="0"/><rect width="121.28594" height="117.103666" rx="0" ry="0" transform="translate(1945.619752 799.881704)" fill="#039" stroke-width="0"/><rect width="121.28594" height="117.103666" rx="0" ry="0" transform="matrix(.476338 0 0 0.476338 2009.343469 240.842468)" fill="#039" stroke-width="0"/><rect width="121.28594" height="117.103666" rx="0" ry="0" transform="matrix(.423795 0 0 0.423795 1115.137449 1047.560597)" fill="#039" stroke-width="0"/><rect width="192" height="108" rx="0" ry="0" transform="translate(1887.067919 1030.551833)" fill="#0138a7" stroke-width="0"/></svg>
